# MagicaVoxel @ Ephtracy

# group
g wall-corner-concave

# material
mtllib wall-corner-concave.mtl
usemtl palette

# normals
vn -1 0 0
vn 1 0 0
vn 0 0 1
vn 0 0 -1
vn 0 -1 0
vn 0 1 0

# texcoords
vt 0.978516 0.5
vt 0.982422 0.5
vt 0.986328 0.5
vt 0.990234 0.5
vt 0.994141 0.5

# verts
v 1 0 8
v 1 0 1
v 1 48 8
v 1 48 1
v 8 0 8
v 8 0 5
v 8 0 3
v 8 0 2
v 8 0 1
v 8 48 8
v 8 48 5
v 8 48 3
v 8 48 2
v 8 48 1
v 1 0 8
v 1 48 8
v 2 0 8
v 2 48 8
v 3 0 8
v 3 48 8
v 4 0 8
v 4 48 8
v 5 0 8
v 5 48 8
v 8 0 8
v 8 48 8
v 1 0 1
v 1 48 1
v 8 0 1
v 8 48 1
v 1 0 8
v 2 0 8
v 3 0 8
v 4 0 8
v 5 0 8
v 8 0 8
v 4 0 7
v 5 0 7
v 6 0 7
v 7 0 7
v 6 0 6
v 7 0 6
v 7 0 5
v 8 0 5
v 2 0 3
v 3 0 3
v 8 0 3
v 3 0 2
v 8 0 2
v 1 0 1
v 8 0 1
v 1 48 8
v 2 48 8
v 3 48 8
v 4 48 8
v 5 48 8
v 8 48 8
v 4 48 7
v 5 48 7
v 6 48 7
v 7 48 7
v 6 48 6
v 7 48 6
v 7 48 5
v 8 48 5
v 2 48 3
v 3 48 3
v 8 48 3
v 3 48 2
v 8 48 2
v 1 48 1
v 8 48 1

# faces
f 3/5/1 2/5/1 1/5/1
f 4/5/1 2/5/1 3/5/1
f 5/4/2 6/4/2 10/4/2
f 6/2/2 7/2/2 11/2/2
f 10/4/2 6/4/2 11/4/2
f 7/1/2 8/1/2 12/1/2
f 11/2/2 7/2/2 12/2/2
f 8/5/2 9/5/2 13/5/2
f 12/1/2 8/1/2 13/1/2
f 13/5/2 9/5/2 14/5/2
f 17/5/3 16/5/3 15/5/3
f 18/5/3 16/5/3 17/5/3
f 19/1/3 18/1/3 17/1/3
f 20/1/3 18/1/3 19/1/3
f 21/2/3 20/2/3 19/2/3
f 22/2/3 20/2/3 21/2/3
f 23/3/3 22/3/3 21/3/3
f 24/3/3 22/3/3 23/3/3
f 25/4/3 24/4/3 23/4/3
f 26/4/3 24/4/3 25/4/3
f 27/5/4 28/5/4 29/5/4
f 29/5/4 28/5/4 30/5/4
f 37/2/5 34/2/5 33/2/5
f 37/3/5 35/3/5 34/3/5
f 38/4/5 36/4/5 35/4/5
f 38/3/5 35/3/5 37/3/5
f 39/4/5 36/4/5 38/4/5
f 40/4/5 36/4/5 39/4/5
f 41/2/5 38/2/5 37/2/5
f 41/2/5 39/2/5 38/2/5
f 41/3/5 40/3/5 39/3/5
f 42/4/5 36/4/5 40/4/5
f 42/3/5 40/3/5 41/3/5
f 43/2/5 42/2/5 41/2/5
f 43/4/5 36/4/5 42/4/5
f 44/4/5 36/4/5 43/4/5
f 45/5/5 32/5/5 31/5/5
f 45/1/5 33/1/5 32/1/5
f 46/2/5 44/2/5 43/2/5
f 46/1/5 33/1/5 45/1/5
f 46/2/5 37/2/5 33/2/5
f 46/2/5 43/2/5 41/2/5
f 46/2/5 41/2/5 37/2/5
f 47/2/5 44/2/5 46/2/5
f 48/5/5 46/5/5 45/5/5
f 48/1/5 47/1/5 46/1/5
f 49/1/5 47/1/5 48/1/5
f 50/5/5 45/5/5 31/5/5
f 50/5/5 48/5/5 45/5/5
f 50/5/5 49/5/5 48/5/5
f 51/5/5 49/5/5 50/5/5
f 54/2/6 55/2/6 58/2/6
f 55/3/6 56/3/6 58/3/6
f 56/4/6 57/4/6 59/4/6
f 58/3/6 56/3/6 59/3/6
f 59/4/6 57/4/6 60/4/6
f 60/4/6 57/4/6 61/4/6
f 58/2/6 59/2/6 62/2/6
f 59/2/6 60/2/6 62/2/6
f 60/3/6 61/3/6 62/3/6
f 61/4/6 57/4/6 63/4/6
f 62/3/6 61/3/6 63/3/6
f 62/2/6 63/2/6 64/2/6
f 63/4/6 57/4/6 64/4/6
f 64/4/6 57/4/6 65/4/6
f 52/5/6 53/5/6 66/5/6
f 53/1/6 54/1/6 66/1/6
f 64/2/6 65/2/6 67/2/6
f 66/1/6 54/1/6 67/1/6
f 54/2/6 58/2/6 67/2/6
f 62/2/6 64/2/6 67/2/6
f 58/2/6 62/2/6 67/2/6
f 67/2/6 65/2/6 68/2/6
f 66/5/6 67/5/6 69/5/6
f 67/1/6 68/1/6 69/1/6
f 69/1/6 68/1/6 70/1/6
f 52/5/6 66/5/6 71/5/6
f 66/5/6 69/5/6 71/5/6
f 69/5/6 70/5/6 71/5/6
f 71/5/6 70/5/6 72/5/6
